<?xml version="1.0" standalone="no"?>
<!DOCTYPE svg PUBLIC "-//W3C//DTD SVG 20010904//EN"
 "http://www.w3.org/TR/2001/REC-SVG-20010904/DTD/svg10.dtd">
<svg version="1.0" xmlns="http://www.w3.org/2000/svg"
 width="600.000000pt" height="600.000000pt" viewBox="0 0 600.000000 600.000000"
 preserveAspectRatio="xMidYMid meet">
<metadata>
Created by potrace 1.14, written by Peter Selinger 2001-2017
</metadata>
<g transform="translate(0.000000,600.000000) scale(0.100000,-0.100000)"
fill="#000000" stroke="none">
<path d="M827 5984 c-208 -37 -383 -129 -532 -279 -129 -129 -214 -275 -264
-454 l-26 -96 0 -2155 0 -2155 26 -96 c50 -179 135 -325 264 -454 152 -153
325 -242 540 -280 77 -13 350 -15 2165 -15 1815 0 2088 2 2165 15 215 38 388
127 540 280 129 129 214 275 264 454 l26 96 0 2155 0 2155 -26 96 c-50 179
-135 325 -264 454 -152 153 -325 242 -540 280 -77 13 -348 15 -2174 14 -1744
-1 -2099 -3 -2164 -15z m1073 -1279 l0 -135 -255 0 -255 0 0 -1570 0 -1570
255 0 255 0 0 -135 0 -135 -475 0 -475 0 0 1840 0 1840 475 0 475 0 0 -135z"/>
</g>
</svg>
